<?xml version="1.0" encoding="UTF-8"?><svg id="Layer_1" xmlns="http://www.w3.org/2000/svg" viewBox="0 0 907.57 903.59"><defs><style>.cls-1{fill:#fff;}.cls-2{fill:none;stroke:#fff;stroke-miterlimit:10;stroke-width:22.68px;}</style></defs><circle class="cls-2" cx="453.78" cy="451.79" r="435.74"/><g><path class="cls-1" d="M266.3,261.65l-57.24-74.02c-.45-.58-.63-1.28-.54-2.08,.09-.8,.43-1.42,1-1.87l10.88-8.41c1.11-.86,2.39-.78,3.86,.23l33.85,25.44c.23,.1,.52,.03,.88-.2,.36-.23,.52-.56,.48-1l-16.11-39.16c-.55-1.62-.26-2.86,.87-3.74l11.11-8.59c.58-.45,1.28-.62,2.09-.52,.81,.1,1.44,.45,1.89,1.03l57.23,74.02c.45,.58,.63,1.28,.52,2.09-.1,.81-.45,1.44-1.03,1.89l-5.37,4.15c-.58,.45-1.28,.63-2.09,.52-.81-.1-1.44-.45-1.89-1.03l-45.26-58.53c-.28-.36-.61-.46-.98-.29-.37,.17-.49,.5-.36,.98l15.14,37.9c.63,1.56,.34,2.81-.87,3.74l-5.8,4.48c-1.2,.93-2.48,.9-3.83-.1l-32.87-24.19c-.44-.24-.78-.21-1.03,.1-.25,.31-.23,.65,.05,1.01l45.25,58.52c.45,.58,.63,1.28,.53,2.09-.1,.81-.44,1.44-1.02,1.88l-5.39,4.17c-.58,.45-1.28,.62-2.08,.52-.81-.1-1.43-.45-1.89-1.03Z"/><path class="cls-1" d="M364.5,199.92l5.71-97.71c-.03-1.46,.69-2.35,2.18-2.67l9.67-2.1c1.49-.32,2.52,.18,3.09,1.52l45.81,86.49c.08,.17,.15,.35,.19,.53,.09,.41,0,.87-.26,1.4-.32,.73-1.02,1.21-2.1,1.45l-7.68,1.67c-1.31,.29-2.35-.22-3.11-1.52l-10.69-19.84c-.55-1.25-1.58-1.71-3.06-1.39l-22.96,5c-1.3,.28-2.04,1.13-2.21,2.53l-1.47,22.49c-.15,1.5-.87,2.39-2.18,2.67l-7.56,1.65c-1.12,.25-1.98,.1-2.57-.43-.41-.38-.66-.78-.75-1.18-.04-.18-.06-.36-.05-.56Zm15.44-41.96c0,.24,.03,.44,.06,.62,.14,.63,.59,.86,1.36,.7l17.18-3.74c.81-.18,1.15-.58,1.01-1.21-.04-.18-.11-.38-.2-.59l-17.47-36.64c-.3-.5-.54-.73-.72-.69l-.27,.06c-.27,.06-.39,.37-.36,.93l-.59,40.57Z"/><path class="cls-1" d="M486.56,187.17l21.57-91.05c.17-.72,.6-1.29,1.3-1.72,.69-.43,1.4-.56,2.12-.39l26.2,6.21c3.95,.94,7.43,2.57,10.43,4.89,3,2.32,5.44,5.09,7.31,8.31,1.87,3.22,3.18,6.78,3.94,10.68,.76,3.9,.92,7.89,.47,11.95-.29,2.82-.76,5.93-1.43,9.33-.66,3.4-1.4,6.83-2.22,10.28-.82,3.46-1.71,6.81-2.67,10.07-.96,3.26-1.91,6.25-2.83,8.97-1.39,3.84-3.28,7.35-5.7,10.53-2.41,3.18-5.2,5.76-8.35,7.77-3.15,2-6.58,3.37-10.29,4.1-3.71,.73-7.56,.63-11.55-.32l-26.2-6.21c-.72-.17-1.29-.6-1.72-1.3-.43-.69-.56-1.4-.39-2.12Zm15.91-8.61c-.21,.9,.13,1.45,1.03,1.67l14.48,3.43c2.11,.5,4.2,.54,6.26,.13,2.06-.41,3.96-1.2,5.68-2.35,1.72-1.16,3.24-2.57,4.56-4.25s2.37-3.54,3.14-5.59c1.01-2.65,1.97-5.62,2.9-8.92,.92-3.29,1.79-6.66,2.61-10.12,.82-3.46,1.56-6.87,2.21-10.25,.66-3.38,1.14-6.5,1.44-9.37,.21-2.08,.1-4.19-.31-6.33s-1.14-4.1-2.16-5.88c-1.02-1.78-2.35-3.33-3.99-4.64-1.63-1.31-3.53-2.22-5.68-2.73l-14.48-3.43c-.9-.21-1.45,.13-1.67,1.03l-16.02,67.61Z"/><path class="cls-1" d="M601.43,230.36l58.61-72.94c.46-.57,1.1-.91,1.91-1,.81-.09,1.5,.1,2.08,.56l36.79,29.56c.58,.46,.91,1.1,1,1.91,.09,.81-.1,1.5-.56,2.08l-4.9,6.1c-.46,.58-1.1,.91-1.91,1-.81,.09-1.5-.1-2.08-.56l-27.4-22.02c-.72-.58-1.37-.51-1.94,.21l-15.96,19.86c-.58,.72-.52,1.38,.17,2l26.22,21.07c.58,.46,.91,1.09,1.01,1.89,.1,.8-.1,1.5-.59,2.11l-4.88,6.07c-.47,.58-1.1,.91-1.92,1-.81,.09-1.51-.1-2.08-.56l-26.22-21.07c-.72-.58-1.38-.49-1.99,.27l-17.3,21.53c-.58,.72-.51,1.37,.21,1.95l27.62,22.19c.57,.46,.91,1.1,1,1.91,.09,.81-.1,1.5-.56,2.08l-4.9,6.1c-.46,.58-1.09,.91-1.88,1.02s-1.49-.09-2.11-.58l-37.01-29.74c-.58-.46-.91-1.1-1-1.91-.09-.81,.1-1.5,.56-2.08Z"/></g><g><path class="cls-1" d="M377.59,364.38v-5.43c0-.59,.22-1.12,.66-1.58,.44-.46,.97-.69,1.6-.69h13.52c.74,0,1.12-.39,1.16-1.16v-57.19c0-.74-.39-1.11-1.16-1.11h-12.41c-.59,0-1.11-.23-1.57-.7-.46-.46-.69-.99-.69-1.59v-5.4c0-.59,.23-1.12,.69-1.59,.46-.46,.99-.7,1.58-.7h37.93c.59,0,1.12,.23,1.58,.7,.46,.46,.69,.99,.69,1.59v5.4c0,.59-.22,1.12-.66,1.59-.44,.46-.97,.7-1.6,.7h-12.41c-.74,0-1.12,.37-1.16,1.11v57.19c0,.74,.39,1.13,1.16,1.16h13.58c.59,0,1.11,.22,1.57,.66s.69,.98,.69,1.61v5.43c0,.59-.23,1.12-.69,1.58-.46,.46-.99,.69-1.58,.69h-40.2c-.59,0-1.12-.23-1.58-.69-.46-.46-.69-.99-.69-1.58Z"/><path class="cls-1" d="M478.17,364.38v-74.85c0-.59,.23-1.12,.69-1.58,.46-.46,.98-.69,1.57-.69h9.34c.59,0,1.05,.12,1.4,.36,.35,.24,.67,.77,.96,1.58l22.41,55.92c.15,.22,.33,.31,.55,.28,.22-.04,.33-.2,.33-.5v-55.36c0-.59,.22-1.12,.66-1.58,.44-.46,.97-.69,1.59-.69h5.7c.58,0,1.1,.23,1.56,.69,.46,.46,.69,.99,.69,1.58v74.85c0,.59-.22,1.12-.66,1.58-.44,.46-.97,.69-1.59,.69h-9.34c-.59,0-1.04-.11-1.37-.33-.33-.22-.66-.76-.99-1.61l-22.36-56.14c-.15-.22-.34-.31-.58-.28-.24,.04-.36,.22-.36,.55v55.53c0,.59-.22,1.12-.66,1.58-.44,.46-.95,.69-1.53,.69h-5.75c-.58,0-1.1-.23-1.56-.69-.46-.46-.68-.99-.68-1.58Z"/></g><g><path class="cls-1" d="M209.36,729.21V448.51c0-2.21,.86-4.18,2.58-5.92,1.72-1.73,3.68-2.6,5.88-2.6h35.04c2.2,0,3.95,.45,5.25,1.35,1.3,.9,2.51,2.88,3.61,5.92l84.05,209.69c.55,.83,1.25,1.18,2.08,1.04,.83-.14,1.25-.76,1.25-1.87v-207.62c0-2.21,.82-4.18,2.46-5.92,1.64-1.73,3.63-2.6,5.96-2.6h21.36c2.19,0,4.14,.87,5.85,2.6,1.71,1.73,2.57,3.71,2.57,5.92v280.7c0,2.22-.83,4.19-2.47,5.92-1.65,1.73-3.64,2.59-5.98,2.59h-35.04c-2.2,0-3.92-.41-5.15-1.25-1.24-.83-2.47-2.83-3.71-6.02l-83.84-210.52c-.56-.83-1.28-1.17-2.18-1.04-.9,.14-1.35,.83-1.35,2.08v208.24c0,2.22-.82,4.19-2.47,5.92-1.64,1.73-3.56,2.59-5.75,2.59h-21.57c-2.19,0-4.14-.86-5.86-2.59-1.71-1.73-2.57-3.7-2.57-5.92Z"/><path class="cls-1" d="M546.12,452.04c-.7-1.52-1.04-2.97-1.04-4.36s.42-2.7,1.25-3.94c1.52-2.49,3.75-3.74,6.66-3.74h28.1c4.02,0,6.73,2.15,8.12,6.44l48.08,132.25c1.1,2.77,2.19,2.77,3.29,0l47.45-132.25c1.38-4.29,4.09-6.44,8.12-6.44h28.1c2.77,0,4.92,1.25,6.45,3.74,.97,1.25,1.46,2.63,1.46,4.15,0,1.25-.35,2.63-1.04,4.15l-71.83,183.12v94.05c0,2.22-.86,4.19-2.57,5.92-1.71,1.73-3.66,2.59-5.86,2.59h-23.63c-2.19,0-4.14-.86-5.86-2.59-1.71-1.73-2.57-3.7-2.57-5.92v-93.63l-72.66-183.53Z"/></g></svg>