<svg width="97" height="80" viewBox="0 0 97 80" fill="none" xmlns="http://www.w3.org/2000/svg">
<path d="M12.0174 11.1306V15.1819C12.0174 16.2522 14.0473 17.1237 16.5521 17.1237C19.057 17.1237 21.0869 16.2534 21.0869 15.1819V9.99836C21.0869 9.2519 20.0987 8.61259 18.6594 8.28638C22.094 6.81489 25.3847 5.4053 27.8943 4.32787V8.37924C27.8943 9.45072 29.9242 10.3234 32.429 10.3234C34.9351 10.3234 36.9661 9.45191 36.9661 8.37924V4.33025L46.1951 8.28638C44.7581 8.61259 43.7652 9.25309 43.7652 9.99836V15.1819C43.7652 16.2522 45.7951 17.1237 48.3023 17.1237C50.8096 17.1237 52.8394 16.2534 52.8394 15.1819V11.1306L64.1757 15.9903C64.1757 15.9903 32.4278 29.5957 32.4302 29.5957L0.680012 15.9903C0.680012 15.9903 5.85167 13.7735 12.0174 11.1306Z" stroke="white" stroke-width="0.5" stroke-miterlimit="10" stroke-linecap="round" stroke-linejoin="round"/>
<path d="M43.7629 42.8796V46.9297C43.7629 48.0012 45.7927 48.8739 48.3 48.8739C50.8072 48.8739 52.8371 48.0024 52.8371 46.9297V41.7462C52.8371 41.0009 51.8442 40.3616 50.4072 40.0342C53.8371 38.5639 57.1361 37.1507 59.6409 36.0757V40.1283C59.6409 41.1985 61.672 42.0724 64.1757 42.0724C66.6817 42.0724 68.7128 41.1997 68.7128 40.1283V36.0805L77.9441 40.0342C76.5048 40.3616 75.5142 41.0021 75.5142 41.7462V46.9297C75.5142 48.0012 77.5465 48.8739 80.049 48.8739C82.5538 48.8739 84.5837 48.0024 84.5837 46.9297V42.8796L95.9211 47.7393C95.9211 47.7393 64.1733 61.3447 64.1757 61.3447L32.4266 47.7393C32.4254 47.7393 37.5971 45.5237 43.7629 42.8796Z" stroke="white" stroke-width="0.5" stroke-miterlimit="10" stroke-linecap="round" stroke-linejoin="round"/>
<path d="M64.1745 61.3447L95.9223 47.7393V65.883L64.1745 79.4883V61.3447Z" stroke="white" stroke-width="0.5" stroke-miterlimit="10" stroke-linecap="round" stroke-linejoin="round"/>
<path d="M64.1756 36.8876C61.6705 36.8876 59.6397 36.0172 59.6397 34.9435C59.6397 33.8698 61.6705 32.9994 64.1756 32.9994C66.6808 32.9994 68.7116 33.8698 68.7116 34.9435C68.7116 36.0172 66.6808 36.8876 64.1756 36.8876Z" stroke="white" stroke-width="0.5" stroke-miterlimit="10" stroke-linecap="round" stroke-linejoin="round"/>
<path d="M68.7116 40.1283C68.7116 41.1985 66.6817 42.0724 64.1745 42.0724C61.6696 42.0724 59.6397 41.1997 59.6397 40.1283V34.9447C59.6397 36.015 61.6708 36.8888 64.1745 36.8888C66.6805 36.8888 68.7116 36.0162 68.7116 34.9447V40.1283Z" stroke="white" stroke-width="0.5" stroke-miterlimit="10" stroke-linecap="round" stroke-linejoin="round"/>
<path d="M59.6397 48.5477C59.6397 49.6203 61.6708 50.4918 64.1745 50.4918C66.6805 50.4918 68.7116 49.6215 68.7116 48.5477C68.7116 47.4786 66.6817 46.6035 64.1745 46.6035C61.6708 46.6035 59.6397 47.4786 59.6397 48.5477Z" stroke="white" stroke-width="0.5" stroke-miterlimit="10" stroke-linecap="round" stroke-linejoin="round"/>
<path d="M68.7116 53.7324C68.7116 54.8051 66.6817 55.6778 64.1745 55.6778C61.6696 55.6778 59.6397 54.8063 59.6397 53.7324V48.5477C59.6397 49.6203 61.6708 50.4918 64.1745 50.4918C66.6805 50.4918 68.7116 49.6215 68.7116 48.5477V53.7324Z" stroke="white" stroke-width="0.5" stroke-miterlimit="10" stroke-linecap="round" stroke-linejoin="round"/>
<path d="M48.3 43.6903C45.7942 43.6903 43.7629 42.8199 43.7629 41.7462C43.7629 40.6725 45.7942 39.8021 48.3 39.8021C50.8057 39.8021 52.8371 40.6725 52.8371 41.7462C52.8371 42.8199 50.8057 43.6903 48.3 43.6903Z" stroke="white" stroke-width="0.5" stroke-miterlimit="10" stroke-linecap="round" stroke-linejoin="round"/>
<path d="M52.8371 46.9309C52.8371 48.0024 50.8072 48.8751 48.3 48.8751C45.7927 48.8751 43.7629 48.0036 43.7629 46.9309V41.7474C43.7629 42.8188 45.7927 43.6915 48.3 43.6915C50.8072 43.6915 52.8371 42.82 52.8371 41.7474V46.9309Z" stroke="white" stroke-width="0.5" stroke-miterlimit="10" stroke-linecap="round" stroke-linejoin="round"/>
<path d="M80.0478 43.6903C77.5433 43.6903 75.5131 42.8199 75.5131 41.7462C75.5131 40.6725 77.5433 39.8021 80.0478 39.8021C82.5522 39.8021 84.5825 40.6725 84.5825 41.7462C84.5825 42.8199 82.5522 43.6903 80.0478 43.6903Z" stroke="white" stroke-width="0.5" stroke-miterlimit="10" stroke-linecap="round" stroke-linejoin="round"/>
<path d="M84.5825 46.9309C84.5825 48.0024 82.5515 48.8751 80.0478 48.8751C77.5453 48.8751 75.5131 48.0036 75.5131 46.9309V41.7474C75.5131 42.8188 77.5453 43.6915 80.0478 43.6915C82.5527 43.6915 84.5825 42.82 84.5825 41.7474V46.9309Z" stroke="white" stroke-width="0.5" stroke-miterlimit="10" stroke-linecap="round" stroke-linejoin="round"/>
<path d="M0.682391 52.2764V34.1339L64.1745 61.3447V79.4883L0.682391 52.2764Z" stroke="white" stroke-width="0.5" stroke-miterlimit="10" stroke-linecap="round" stroke-linejoin="round"/>
<path d="M32.4278 29.5957L0.682382 15.9903V34.1339L32.4278 47.7393V29.5957Z" stroke="white" stroke-width="0.5" stroke-miterlimit="10" stroke-linecap="round" stroke-linejoin="round"/>
<path d="M27.8931 3.19211C27.8931 4.26478 29.923 5.13743 32.4278 5.13743C34.9339 5.13743 36.9649 4.26478 36.9649 3.19211C36.9649 2.12301 34.9351 1.24798 32.4278 1.24798C29.923 1.24917 27.8931 2.12301 27.8931 3.19211Z" stroke="white" stroke-width="0.5" stroke-miterlimit="10" stroke-linecap="round" stroke-linejoin="round"/>
<path d="M36.9649 8.37805C36.9649 9.44953 34.9351 10.3222 32.4278 10.3222C29.923 10.3222 27.8931 9.45072 27.8931 8.37805V3.19211C27.8931 4.26477 29.923 5.13743 32.4278 5.13743C34.9339 5.13743 36.9649 4.26477 36.9649 3.19211V8.37805Z" stroke="white" stroke-width="0.5" stroke-miterlimit="10" stroke-linecap="round" stroke-linejoin="round"/>
<path d="M32.429 18.7428C29.9239 18.7428 27.8931 17.8724 27.8931 16.7987C27.8931 15.7249 29.9239 14.8545 32.429 14.8545C34.9341 14.8545 36.9649 15.7249 36.9649 16.7987C36.9649 17.8724 34.9341 18.7428 32.429 18.7428Z" stroke="white" stroke-width="0.5" stroke-miterlimit="10" stroke-linecap="round" stroke-linejoin="round"/>
<path d="M36.9649 21.9822C36.9649 23.0549 34.9351 23.9264 32.4278 23.9264C29.923 23.9264 27.8931 23.0561 27.8931 21.9822V16.7987C27.8931 17.8725 29.923 18.7428 32.4278 18.7428C34.9339 18.7428 36.9649 17.8737 36.9649 16.7987V21.9822Z" stroke="white" stroke-width="0.5" stroke-miterlimit="10" stroke-linecap="round" stroke-linejoin="round"/>
<path d="M16.5521 11.9401C14.0477 11.9401 12.0174 11.0708 12.0174 9.99836C12.0174 8.92596 14.0477 8.05661 16.5521 8.05661C19.0566 8.05661 21.0869 8.92596 21.0869 9.99836C21.0869 11.0708 19.0566 11.9401 16.5521 11.9401Z" stroke="white" stroke-width="0.5" stroke-miterlimit="10" stroke-linecap="round" stroke-linejoin="round"/>
<path d="M21.0869 15.1819C21.0869 16.2522 19.057 17.1237 16.5545 17.1237C14.0484 17.1237 12.0174 16.2534 12.0174 15.1819V9.99836C12.0174 11.0686 14.0473 11.9401 16.5545 11.9401C19.057 11.9401 21.0869 11.0698 21.0869 9.99836V15.1819Z" stroke="white" stroke-width="0.5" stroke-miterlimit="10" stroke-linecap="round" stroke-linejoin="round"/>
<path d="M48.3 11.9401C45.7942 11.9401 43.7629 11.0708 43.7629 9.99836C43.7629 8.92596 45.7942 8.05661 48.3 8.05661C50.8057 8.05661 52.8371 8.92596 52.8371 9.99836C52.8371 11.0708 50.8057 11.9401 48.3 11.9401Z" stroke="white" stroke-width="0.5" stroke-miterlimit="10" stroke-linecap="round" stroke-linejoin="round"/>
<path d="M52.8371 15.1819C52.8371 16.2522 50.8072 17.1237 48.3 17.1237C45.7927 17.1237 43.7629 16.2534 43.7629 15.1819V9.99836C43.7629 11.0686 45.7927 11.9401 48.3 11.9401C50.8072 11.9401 52.8371 11.0698 52.8371 9.99836V15.1819Z" stroke="white" stroke-width="0.5" stroke-miterlimit="10" stroke-linecap="round" stroke-linejoin="round"/>
<path d="M64.1745 15.9903V33.0006C61.6696 33.0006 59.6397 33.8708 59.6397 34.9447V36.0757L50.406 40.0342C49.7715 39.8901 49.0619 39.8044 48.2988 39.8044C45.7927 39.8044 43.7617 40.6735 43.7617 41.7474V42.8808L32.4266 47.7405V29.5968L64.1745 15.9903Z" stroke="white" stroke-width="0.5" stroke-miterlimit="10" stroke-linecap="round" stroke-linejoin="round"/>
</svg>
