<svg width="40" height="40" viewBox="0 0 40 40" fill="none" xmlns="http://www.w3.org/2000/svg">
<path d="M6.46872 6.46872C9.97028 2.96715 14.7194 1 19.6713 1C24.6232 1 29.3723 2.96715 32.8739 6.46872C36.3754 9.97028 38.3426 14.7194 38.3426 19.6713C38.3426 24.6232 36.3754 29.3723 32.8739 32.8739C29.3723 36.3754 24.6232 38.3426 19.6713 38.3426C14.7194 38.3426 9.97028 36.3754 6.46872 32.8739C2.96715 29.3723 1 24.6232 1 19.6713C1 14.7194 2.96715 9.97028 6.46872 6.46872Z" stroke="#444444" stroke-width="2"/>
<path d="M10.2931 20.1279L16.7056 26.5375C17.0964 26.928 17.7298 26.9277 18.1202 26.5368L28.8749 15.7677C29.2649 15.3771 29.2652 14.7437 28.8749 14.3533L26.8134 12.2929C26.4226 11.9022 25.7891 11.9024 25.3987 12.2934L18.1197 19.5822C17.7295 19.9729 17.0965 19.9734 16.7056 19.5833L13.768 16.6513C13.3774 16.2614 12.7447 16.2617 12.3545 16.652L10.2929 18.7135C9.9023 19.1041 9.90238 19.7374 10.2931 20.1279Z" fill="#444444"/>
</svg>
